<svg version="1.2" xmlns="http://www.w3.org/2000/svg" viewBox="0 0 24 24" width="24" height="24">
	<title>kofi-svg</title>
	<style>
		.s0 { fill: #ffffff } 
	</style>
	<path id="Layer" fill-rule="evenodd" class="s0" d="m17.2 15.9c0.1 1.1-0.2 3.3-2.6 3.7-3.7 0-12 0-12 0 0 0-2.4-0.2-2.6-2.6 0-4.5 0-11.8 0-11.8 0 0 0.1-0.8 0.7-0.8h18.3c0 0 4.1 0.5 4.9 4.5 0.8 4.1-2.3 7.2-6.7 7zm-5.1-7.8c-1.9-0.8-3.5 1-3.5 1-1.3-1.5-3.4-1.4-4.3-0.4-1 1-0.7 2.7 0.1 3.7 0.6 0.9 3.5 3.5 4 4q0 0 0.1 0.1c0.2 0.1 0.3-0.1 0.3-0.1 0 0 2.8-2.5 4-3.9 1.1-1.3 1.2-3.5-0.7-4.4zm9 1.8c0-2.1-2-2.6-2-2.6h-1.8v5.7c0 0 0.8 0.1 1.7-0.1 1.1-0.3 2.1-1.1 2.1-3z"/>
</svg>